<svg width="50" height="50" viewBox="0 0 50 50" fill="none" xmlns="http://www.w3.org/2000/svg">
<g clip-path="url(#clip0_13_319)">
<circle cx="25" cy="25" r="25" fill="#D9D9D9"/>
<path d="M25.0001 49.0521C11.7165 49.0521 0.947998 38.2836 0.947998 25C0.947998 11.7164 11.7165 0.947937 25.0001 0.947937C38.2837 0.947937 49.0521 11.7164 49.0521 25C49.0521 38.2836 38.2837 49.0521 25.0001 49.0521Z" stroke="#222221" stroke-width="1.5" stroke-miterlimit="10"/>
<path d="M24.9999 14.1936C28.5262 14.1936 28.9433 14.2063 30.3336 14.2695C31.6228 14.3327 32.3179 14.5475 32.7856 14.7245C33.4049 14.9646 33.8346 15.2553 34.3023 15.7103C34.7699 16.178 35.048 16.6077 35.2881 17.227C35.4651 17.6947 35.6799 18.3898 35.7431 19.679C35.8063 21.0693 35.819 21.4864 35.819 25.0127C35.819 28.5389 35.8063 28.956 35.7431 30.3463C35.6799 31.6355 35.4651 32.3307 35.2881 32.7983C35.048 33.4176 34.7573 33.8473 34.3023 34.315C33.8473 34.77 33.4049 35.0607 32.7856 35.3008C32.3179 35.4778 31.6228 35.6926 30.3336 35.7558C28.9433 35.819 28.5262 35.8317 24.9999 35.8317C21.4737 35.8317 21.0566 35.819 19.6663 35.7558C18.3771 35.6926 17.6819 35.4778 17.2143 35.3008C16.595 35.0607 16.1653 34.77 15.6976 34.315C15.23 33.8473 14.9519 33.4176 14.7118 32.7983C14.5348 32.3307 14.32 31.6355 14.2568 30.3463C14.1936 28.956 14.1809 28.5389 14.1809 25.0127C14.1809 21.4864 14.1936 21.0693 14.2568 19.679C14.32 18.3898 14.5348 17.6947 14.7118 17.227C14.9519 16.6077 15.2426 16.178 15.6976 15.7103C16.1653 15.2427 16.595 14.9646 17.2143 14.7245C17.6819 14.5475 18.3771 14.3327 19.6663 14.2695C21.0566 14.2063 21.4737 14.1936 24.9999 14.1936ZM24.9999 11.8175C21.4231 11.8175 20.9681 11.8301 19.5652 11.8933C18.1622 11.9565 17.2017 12.184 16.3675 12.5127C15.4954 12.8539 14.7623 13.2963 14.0293 14.0293C13.2962 14.7624 12.8412 15.4955 12.5126 16.3676C12.184 17.2017 11.9691 18.1623 11.9059 19.5652C11.8427 20.9682 11.8301 21.4232 11.8301 25C11.8301 28.5769 11.8427 29.0319 11.9059 30.4348C11.9691 31.8377 12.1966 32.7983 12.5126 33.6325C12.8538 34.5046 13.2962 35.2376 14.0293 35.9707C14.7623 36.7038 15.4954 37.1588 16.3675 37.4874C17.2017 37.816 18.1622 38.0308 19.5652 38.1067C20.9681 38.1699 21.4231 38.1825 24.9999 38.1825C28.5768 38.1825 29.0318 38.1699 30.4347 38.1067C31.8377 38.0435 32.7982 37.816 33.6324 37.4874C34.5045 37.1461 35.2376 36.7038 35.9706 35.9707C36.7037 35.2376 37.1587 34.5046 37.4873 33.6325C37.8159 32.7983 38.0308 31.8377 38.1066 30.4348C38.1698 29.0319 38.1825 28.5769 38.1825 25C38.1825 21.4232 38.1698 20.9682 38.1066 19.5652C38.0434 18.1623 37.8159 17.2017 37.4873 16.3676C37.1461 15.4955 36.7037 14.7624 35.9706 14.0293C35.2376 13.2963 34.5045 12.8413 33.6324 12.5127C32.7982 12.184 31.8377 11.9692 30.4347 11.8933C29.0318 11.8301 28.5768 11.8175 24.9999 11.8175Z" fill="#222221"/>
<path d="M24.9999 18.2255C21.2587 18.2255 18.2253 21.2589 18.2253 25C18.2253 28.7412 21.2587 31.7745 24.9999 31.7745C28.741 31.7745 31.7744 28.7412 31.7744 25C31.7744 21.2589 28.741 18.2255 24.9999 18.2255ZM24.9999 29.3984C22.5732 29.3984 20.6015 27.4267 20.6015 25C20.6015 22.5733 22.5732 20.6016 24.9999 20.6016C27.4266 20.6016 29.3982 22.5733 29.3982 25C29.3982 27.4267 27.4266 29.3984 24.9999 29.3984Z" fill="#222221"/>
<path d="M33.6197 17.9601C33.6197 18.8322 32.9119 19.5399 32.0398 19.5399C31.1677 19.5399 30.46 18.8322 30.46 17.9601C30.46 17.088 31.1677 16.3802 32.0398 16.3802C32.9119 16.3802 33.6197 17.088 33.6197 17.9601Z" fill="#222221"/>
</g>
<defs>
<clipPath id="clip0_13_319">
<rect width="50" height="50" fill="white"/>
</clipPath>
</defs>
</svg>
