<svg width="52" height="51" viewBox="0 0 52 51" fill="none" xmlns="http://www.w3.org/2000/svg">
<circle cx="26" cy="26.0001" r="25" fill="#D9D9D9"/>
<path d="M26 50C12.1929 50 1 39.031 1 25.5C1 11.969 12.1929 1 26 1C39.8071 1 51 11.969 51 25.5C51 39.031 39.8071 50 26 50Z" stroke="#222221" stroke-width="1.5" stroke-miterlimit="10"/>
<g clip-path="url(#clip0_64_10)">
<path d="M9.60613 24.2824C9.60613 24.2824 23.6158 18.4209 28.4754 16.3597C30.3413 15.5331 36.6556 12.8922 36.6556 12.8922C36.6556 12.8922 39.5651 11.7328 39.3226 14.5454C39.2383 15.7048 38.5953 19.7413 37.9417 24.1106C36.9719 30.2942 35.9177 37.0575 35.9177 37.0575C35.9177 37.0575 35.7596 38.9577 34.3787 39.2797C32.9977 39.6125 30.7313 38.131 30.3307 37.7982C30.0039 37.5513 24.2588 33.8369 22.1505 32.0226C21.5813 31.5288 20.9382 30.5411 22.2348 29.3817C25.1443 26.6657 28.6335 23.284 30.7313 21.1369C31.7011 20.1493 32.6709 17.8412 28.623 20.6431C22.8779 24.6796 17.2066 28.4799 17.2066 28.4799C17.2066 28.4799 15.9099 29.3066 13.4854 28.5658C11.0609 27.8251 8.2252 26.8374 8.2252 26.8374C8.2252 26.8374 6.28556 25.6029 9.60613 24.2824Z" fill="#222221"/>
</g>
<defs>
<clipPath id="clip0_64_10">
<rect width="31.6667" height="26.6667" fill="white" transform="translate(7.6665 12.6667)"/>
</clipPath>
</defs>
</svg>
