<svg width="50" height="50" viewBox="0 0 50 50" fill="none" xmlns="http://www.w3.org/2000/svg">
<g clip-path="url(#clip0_13_326)">
<circle cx="25" cy="25" r="25" fill="#D9D9D9"/>
<path d="M25.0001 49.0521C11.7165 49.0521 0.947998 38.2836 0.947998 25C0.947998 11.7164 11.7165 0.947937 25.0001 0.947937C38.2837 0.947937 49.0521 11.7164 49.0521 25C49.0521 38.2836 38.2837 49.0521 25.0001 49.0521Z" stroke="#222221" stroke-width="1.5" stroke-miterlimit="10"/>
<path fill-rule="evenodd" clip-rule="evenodd" d="M38.1824 24.3301C38.0055 17.3787 32.28 11.8048 25.24 11.8048C18.2001 11.8048 12.601 17.2523 12.2977 24.1026C12.2977 24.2922 12.2977 24.4818 12.2977 24.6714C12.2977 27.0981 12.9802 29.3731 14.1556 31.3069L11.8174 38.2078L18.9964 35.9327C20.8543 36.9565 22.9903 37.5379 25.2527 37.5379C32.4064 37.5379 38.2077 31.7871 38.2077 24.684C38.2077 24.5703 38.2077 24.4691 38.2077 24.3554L38.1824 24.3301ZM25.24 35.4651C23.0282 35.4651 20.968 34.8079 19.2491 33.6704L15.0656 35.0101L16.418 30.9909C15.1162 29.2088 14.3452 27.0222 14.3452 24.6587C14.3452 24.3048 14.3578 23.9509 14.3957 23.6097C14.9266 18.137 19.5904 13.8524 25.2274 13.8524C30.8644 13.8524 35.642 18.2507 36.0843 23.8119C36.1096 24.09 36.1222 24.368 36.1222 24.6587C36.1222 30.6244 31.2309 35.4651 25.2274 35.4651H25.24Z" fill="#222221"/>
<path fill-rule="evenodd" clip-rule="evenodd" d="M31.1804 27.2624C30.8644 27.1107 29.2972 26.3397 29.0065 26.2386C28.7158 26.1249 28.5009 26.0869 28.2861 26.3903C28.0712 26.7063 27.4645 27.414 27.2749 27.6163C27.0854 27.8311 26.9084 27.8564 26.5798 27.6921C26.2638 27.5404 25.2401 27.2118 24.0267 26.1249C23.0914 25.2907 22.4468 24.2669 22.2572 23.951C22.0803 23.635 22.2446 23.4707 22.3963 23.3064C22.5353 23.1673 22.7123 22.9398 22.8766 22.7502C22.9145 22.6997 22.9524 22.6491 22.9903 22.5986C23.0661 22.4848 23.1167 22.3711 23.1925 22.2194C23.3063 22.0045 23.2431 21.8276 23.1673 21.6633C23.0914 21.5116 22.4468 19.957 22.1814 19.3251C21.916 18.6931 21.6506 18.8069 21.461 18.8069C21.2714 18.8069 21.0692 18.7816 20.8543 18.7816C20.6394 18.7816 20.2982 18.8574 20.0075 19.1734C19.7168 19.4894 18.8953 20.2477 18.8953 21.8023C18.8953 22.1688 18.9585 22.5354 19.0596 22.8766C19.3755 23.9889 20.0707 24.8989 20.1971 25.0632C20.3488 25.2654 22.3963 28.5516 25.6192 29.8281C28.8548 31.0794 28.8548 30.6623 29.4362 30.6117C30.0176 30.5612 31.3194 29.8534 31.5722 29.1077C31.8376 28.3746 31.8376 27.7427 31.7618 27.6036C31.686 27.4772 31.4711 27.4014 31.1551 27.2371L31.1804 27.2624Z" fill="#222221"/>
</g>
<defs>
<clipPath id="clip0_13_326">
<rect width="50" height="50" fill="white"/>
</clipPath>
</defs>
</svg>
